<?xml version="1.0" standalone="no"?><!DOCTYPE svg PUBLIC "-//W3C//DTD SVG 1.1//EN" "http://www.w3.org/Graphics/SVG/1.1/DTD/svg11.dtd"><svg t="1746805374983" class="icon" viewBox="0 0 1024 1024" version="1.1" xmlns="http://www.w3.org/2000/svg" p-id="12257" xmlns:xlink="http://www.w3.org/1999/xlink" width="200" height="200"><path d="M512.149999 0.177569c263.142798 99.278169 424.054451 415.566522 286.7626 672.066375L464.1704 335.656761l126.588941-128.064928-78.609342-79.718333a159.435666 159.435666 0 0 1-161.650647 33.584719L96.21348 416.113087l143.934795 143.565799 95.957197-95.5872 335.110196 335.849189c-163.864629 90.051246-391.207726 61.633484-560.239312-112.565058l-81.19432 81.194321A735.545844 735.545844 0 0 0 99.903449 858.251387a125.112953 125.112953 0 0 1-9.226923 8.488929 85.623283 85.623283 0 0 0-14.024883-2.214981A80.08733 80.08733 0 0 0 0.256283 945.351658a78.241345 78.241345 0 0 0 78.242345 78.242345 80.456327 80.456327 0 0 0 80.455327-78.611342 90.052246 90.052246 0 0 0-2.213982-14.392879l12.547895-12.179898c192.652388 129.910913 403.756621 147.625764 631.100718 9.964916l93.742216 94.111213 128.434925-126.588941-94.480209-95.5872C1198.978251 391.755291 837.664274-9.418351 512.148999 0.176569z" p-id="12258"></path></svg>