<?xml version="1.0" standalone="no"?><!DOCTYPE svg PUBLIC "-//W3C//DTD SVG 1.1//EN" "http://www.w3.org/Graphics/SVG/1.1/DTD/svg11.dtd"><svg t="1611594002477" class="icon" viewBox="0 0 1024 1024" version="1.1" xmlns="http://www.w3.org/2000/svg" p-id="12405" xmlns:xlink="http://www.w3.org/1999/xlink" width="200" height="200"><defs><style type="text/css"></style></defs><path d="M824.891164 113.777778V28.444444a28.444444 28.444444 0 0 0-28.444444-28.444444H227.557831a28.444444 28.444444 0 0 0-28.444444 28.444444v85.333334H0.002276v227.555555a256 256 0 0 0 232.96 256A312.888889 312.888889 0 0 0 455.113387 762.595556V910.222222l-113.777778 113.777778h341.333333l-113.777778-113.777778v-147.626666A312.888889 312.888889 0 0 0 791.042276 597.333333 256 256 0 0 0 1024.002276 341.333333V113.777778zM113.780053 341.333333V227.555556h85.333334v244.337777A142.222222 142.222222 0 0 1 113.780053 341.333333z m796.444445 0a142.222222 142.222222 0 0 1-85.333334 130.56V227.555556h85.333334z" p-id="12406"></path></svg>