<?xml version="1.0" standalone="no"?><!DOCTYPE svg PUBLIC "-//W3C//DTD SVG 1.1//EN" "http://www.w3.org/Graphics/SVG/1.1/DTD/svg11.dtd"><svg t="1611595676404" class="icon" viewBox="0 0 1380 1024" version="1.1" xmlns="http://www.w3.org/2000/svg" p-id="45896" xmlns:xlink="http://www.w3.org/1999/xlink" width="269.53125" height="200"><defs><style type="text/css"></style></defs><path d="M1357.21539 286.181637L702.603599 2.593694a31.252549 31.252549 0 0 0-25.019847 0L22.971961 286.226156c-13.800983 5.965586-22.92744 21.146668-22.927439 38.064002 0 16.961853 9.126457 32.098415 22.927439 38.108521l654.611791 283.587943a30.985433 30.985433 0 0 0 25.019847 0l508.94464-220.504095v225.579295c-27.290331 14.513292-46.255553 46.166514-46.255553 82.983975 0 36.817461 18.965222 68.470684 46.255553 83.028495v78.665604h67.046067v-78.665604c27.290331-14.557811 46.255553-46.211034 46.255552-83.028495s-18.965222-68.470684-46.300072-83.028494V396.411424l78.665604-34.057264c13.800983-6.010106 22.92744-21.146668 22.927439-38.108521 0-16.917334-9.126457-32.098415-22.927439-38.064002zM690.093676 702.837768c-10.061362 0-20.033685-2.092407-29.204661-6.143663l-408.108426-176.786142v244.099324c0 199.891658 297.611522 259.948194 390.65686 259.948194h93.267934c69.717224 0 390.701379-60.012017 390.701379-259.948194v-244.099324l-408.108425 176.786142c-9.215495 4.006737-19.143299 6.143663-29.204661 6.143663z" p-id="45897"></path></svg>