<?xml version="1.0" standalone="no"?><!DOCTYPE svg PUBLIC "-//W3C//DTD SVG 1.1//EN" "http://www.w3.org/Graphics/SVG/1.1/DTD/svg11.dtd"><svg t="1611595452556" class="icon" viewBox="0 0 1024 1024" version="1.1" xmlns="http://www.w3.org/2000/svg" p-id="35640" xmlns:xlink="http://www.w3.org/1999/xlink" width="200" height="200"><defs><style type="text/css"></style></defs><path d="M75.264 594.944h142.848V962.56H75.264v-367.616z m245.248-136.704h142.848V962.56H320.512V458.24z m257.024 78.336h142.848v426.496h-142.848v-426.496z m227.84-190.976h142.848v617.472h-142.848V345.6z m71.68-285.184c-35.328 0-64 28.672-64 64 0 3.584 1.536 6.656 2.048 9.728l-128 123.904c-9.728-6.144-20.992-10.752-33.792-10.752-24.576 0-45.568 14.336-56.32 34.816l-144.896-28.672c-8.192-26.112-31.232-46.08-60.416-46.08-31.232 0-55.808 23.04-61.952 52.224L184.32 346.624c-10.752-8.192-23.552-13.824-37.888-13.824-35.328 0-64 28.672-64 64S111.104 460.8 146.432 460.8c31.232 0 55.808-23.04 61.952-52.224l144.896-87.04c10.752 8.192 23.552 13.824 37.888 13.824 17.408 0 32.768-7.168 44.032-17.92l167.424 33.28c11.776 13.824 28.672 22.528 48.128 22.528 31.744 0 56.832-23.552 61.952-53.76l144.896-134.656c6.144 2.048 12.288 4.096 18.944 4.096 35.328 0 64-28.672 64-64 0.512-35.84-28.16-64.512-63.488-64.512z" p-id="35641"></path></svg>